<?xml version="1.0" encoding="UTF-8" standalone="no"?>
<svg width="36px" height="37px" viewBox="0 0 36 37" version="1.1" xmlns="http://www.w3.org/2000/svg" xmlns:xlink="http://www.w3.org/1999/xlink" xmlns:sketch="http://www.bohemiancoding.com/sketch/ns">
    <title>search</title>
    <description>Created with Sketch (http://www.bohemiancoding.com/sketch)</description>
    <defs></defs>
    <g id="Page-1" stroke="none" stroke-width="1" fill="none" fill-rule="evenodd" sketch:type="MSPage">
        <g id="Desktop-(London)" sketch:type="MSArtboardGroup" transform="translate(-824.000000, -102.000000)" fill="#FFFFFF">
            <g id="Sök" sketch:type="MSLayerGroup" transform="translate(250.000000, 90.000000)">
                <path d="M596,22.3000543 C602.846721,23.6898652 608,29.7431259 608,37 C608,45.2842717 601.284272,52 593,52 C584.715728,52 578,45.2842717 578,37 C578,29.7431259 583.153279,23.6898652 590,22.3000543 L590,11 L596,11 L596,22.3000543 Z M593,46 C597.970563,46 602,41.970563 602,37 C602,32.029437 597.970563,28 593,28 C588.029437,28 584,32.029437 584,37 C584,41.970563 588.029437,46 593,46 Z" id="Oval-1" sketch:type="MSShapeGroup" transform="translate(593.000000, 31.500000) rotate(-225.000000) translate(-593.000000, -31.500000) "></path>
            </g>
        </g>
    </g>
</svg>